Coordinates
version=1
nRows=6
nColumns=46
inDegrees=yes

Units are S.I. units (second, meters, Newtons, ...)
Angles are in degrees.

endheader
time	pelvis_tilt	pelvis_list	pelvis_rotation	pelvis_tx	pelvis_ty	pelvis_tz	bb_angle	bb_tx	bb_ty	bb_tz	hip_flexion_r	hip_adduction_r	hip_rotation_r	knee_angle_r	knee_angle_r_beta	ankle_angle_r	subtalar_angle_r	mtp_angle_r	crank_angle_r	hip_flexion_l	hip_adduction_l	hip_rotation_l	knee_angle_l	knee_angle_l_beta	ankle_angle_l	subtalar_angle_l	mtp_angle_l	crank_angle_l	lumbar_extension	lumbar_bending	lumbar_rotation	arm_flex_r	arm_add_r	arm_rot_r	elbow_flex_r	pro_sup_r	wrist_flex_r	wrist_dev_r	arm_flex_l	arm_add_l	arm_rot_l	elbow_flex_l	pro_sup_l	wrist_flex_l	wrist_dev_l
      2.50000000	    -20.20933559	      8.35887765	      6.75979272	      0.15518529	      1.05403836	     -0.21409151	      0.00000000	      0.50000000	      0.00000000	      0.25000000	     49.56084141	    -11.35164326	      8.23773302	     54.22035291	      0.94632368	    -34.20947727	    -18.76678586	      0.00000000	      0.00000000	     84.68799824	      6.23021878	     -1.03563998	     97.57585824	      1.70302000	     24.83125114	    -12.81237336	      0.00000000	      0.00000000	    -54.85696007	     -1.14097996	    -11.34846363	     87.68212905	    -11.26042532	     33.03532557	     52.98347426	     43.09859661	      0.00000000	      0.00000000	     83.23991152	    -11.54437963	     17.46159563	     58.70588405	     45.94781628	      0.00000000	      0.00000000
      2.50500000	    -20.13628135	      8.03055266	      6.60927480	      0.15373682	      1.05348083	     -0.21341778	      0.00000000	      0.50000000	      0.00000000	      0.25000000	     50.08967127	    -10.71293414	      8.50507247	     56.08344375	      0.97884075	    -33.83876630	    -19.13400832	      0.00000000	      0.00000000	     83.86832506	      6.01506704	     -0.78010276	     95.61180277	      1.66874076	     25.43256047	    -13.07521283	      0.00000000	      0.00000000	    -54.86909583	     -1.02632197	    -10.92381648	     87.78185627	    -11.26257196	     32.97231964	     52.97668695	     43.09759775	      0.00000000	      0.00000000	     83.24979661	    -11.53184187	     17.32433679	     58.74786004	     45.94697145	      0.00000000	      0.00000000
      2.51000000	    -20.25175952	      8.07281048	      6.37685199	      0.15249088	      1.05257893	     -0.21249828	      0.00000000	      0.50000000	      0.00000000	      0.25000000	     50.97159312	    -10.32301081	      9.01226912	     58.17031501	      1.01526352	    -32.99470527	    -19.37121702	      0.00000000	      0.00000000	     83.14523498	      5.76754367	     -0.93241115	     93.53635842	      1.63251742	     25.81397831	    -13.37477975	      0.00000000	      0.00000000	    -54.73807112	     -1.43129698	    -10.77337604	     87.79090990	    -11.46602840	     32.77438489	     52.92931482	     43.09550368	      0.00000000	      0.00000000	     83.24783986	    -11.13475620	     17.01369180	     58.86988022	     45.95673139	      0.00000000	      0.00000000
      2.51500000	    -20.23597544	      7.78758053	      6.15811085	      0.15137213	      1.05191529	     -0.21181149	      0.00000000	      0.50000000	      0.00000000	      0.25000000	     51.58831959	     -9.72254319	      9.17692893	     60.04548922	      1.04799149	    -32.48138554	    -19.74583273	      0.00000000	      0.00000000	     82.34060095	      5.50802065	     -0.72739291	     91.54244765	      1.59771712	     26.12010433	    -13.64396171	      0.00000000	      0.00000000	    -54.67908313	     -1.42820730	    -10.36469286	     87.89118766	    -11.45949059	     32.72510395	     52.95658886	     43.10204293	      0.00000000	      0.00000000	     83.23776458	    -11.09395843	     16.87704330	     58.90886737	     45.95670370	      0.00000000	      0.00000000
      2.52000000	    -20.31437704	      7.61351616	      5.90761719	      0.15042809	      1.05115666	     -0.21106289	      0.00000000	      0.50000000	      0.00000000	      0.25000000	     52.37836973	     -9.22251388	      9.36483087	     62.01484931	      1.08236331	    -31.74282159	    -20.04723367	      0.00000000	      0.00000000	     81.60487792	      5.23525813	     -0.66091646	     89.50209811	      1.56210630	     26.20363953	    -13.90976049	      0.00000000	      0.00000000	    -54.59850106	     -1.61318115	    -10.07662736	     87.96408110	    -11.55064709	     32.63148450	     52.95651684	     43.10191602	      0.00000000	      0.00000000	     83.24110161	    -10.93536905	     16.66809690	     59.00446006	     45.96055168	      0.00000000	      0.00000000
      2.52500000	    -20.34749805	      7.41132646	      5.62871181	      0.14962313	      1.05050349	     -0.21019094	      0.00000000	      0.50000000	      0.00000000	      0.25000000	     53.11760482	     -8.69552128	      9.49323702	     63.94595285	      1.11606742	    -31.10011023	    -20.27642992	      0.00000000	      0.00000000	     80.80716308	      4.93005874	     -0.52326971	     87.46073021	      1.52647771	     26.10233813	    -14.07797298	      0.00000000	      0.00000000	    -54.53497332	     -1.75442546	     -9.72902183	     87.99051243	    -11.58778253	     32.57444590	     52.96426534	     43.10529349	      0.00000000	      0.00000000	     83.23355870	    -10.83092980	     16.48918626	     59.09306546	     45.96505255	      0.00000000	      0.00000000
